<svg width="70" height="64" viewBox="0 0 70 64" fill="none" xmlns="http://www.w3.org/2000/svg">
<path d="M69.2066 60.8382L58.6223 33.2884H67.3887C68.007 33.2884 68.5028 32.7895 68.5028 32.1743V27.2862C68.5028 26.668 68.0039 26.1721 67.3887 26.1721H55.311L59.6756 16.5892C60.3796 15.0405 59.694 13.2101 58.1453 12.5031C56.5934 11.7992 54.7662 12.4848 54.0592 14.0335L48.5314 26.1723H48.0601C47.5887 24.8287 47.6132 23.3442 48.1764 22.0311C48.3264 21.6883 48.2927 21.2904 48.0846 20.9782C47.8764 20.666 47.5275 20.4762 47.1541 20.4762H37.6966C35.5908 20.4762 33.8829 22.1902 33.8829 24.2899C33.8829 24.9786 34.0788 25.6152 34.4002 26.1753H24.8933L22.5733 23.0472H27.0726C29.108 23.0472 30.7638 21.3913 30.7638 19.3559L30.7608 6.66C30.7608 4.62456 29.1049 2.96875 27.0695 2.96875H6.74881C4.71337 2.96875 3.05756 4.62464 3.05756 6.66V19.3497C3.05756 21.3851 4.71345 23.0409 6.74881 23.0409H11.2481L8.92811 26.169H2.6107C1.99243 26.169 1.49656 26.6679 1.49656 27.2832V32.1712C1.49656 32.7895 1.99547 33.2853 2.6107 33.2853H11.3771L0.792854 60.8383C0.66124 61.1811 0.707148 61.5667 0.915284 61.8697C1.12341 62.1728 1.46622 62.3533 1.83353 62.3533H6.73686C7.19903 62.3533 7.61225 62.0687 7.7775 61.6371L18.6705 33.2881H45.2933L40.7542 43.2604L36.1294 41.1546C35.0276 40.6526 33.794 40.6098 32.6616 41.0352C31.5291 41.4576 30.6261 42.3024 30.1272 43.4012L29.3376 45.1305L27.1338 49.9696C26.8767 50.5297 27.1277 51.1939 27.6878 51.4479L48.7764 61.0464C48.9233 61.1138 49.0825 61.1475 49.2386 61.1475C49.3702 61.1475 49.5018 61.123 49.6304 61.0771C49.9058 60.973 50.1323 60.7649 50.2548 60.4955L52.4585 55.6564L53.2482 53.9241C53.7501 52.8222 53.793 51.5917 53.3675 50.4593C52.9451 49.3268 52.1004 48.4238 50.9985 47.9249L46.3707 45.8191L51.6719 34.1763L62.2225 61.6438C62.3878 62.0754 62.804 62.36 63.2631 62.36H68.1665C68.5337 62.36 68.8796 62.1794 69.0847 61.8764C69.2928 61.5704 69.3387 61.1847 69.2071 60.8388L69.2066 60.8382ZM37.699 22.6979H45.6451C45.4339 23.7416 45.4339 24.822 45.6451 25.8658H37.699C36.8267 25.8658 36.1166 25.1557 36.1166 24.2804C36.1166 23.408 36.8237 22.6979 37.699 22.6979ZM66.2745 28.397V31.0537H53.0888L54.2979 28.397H66.2745ZM6.74862 5.20222H27.0725C27.8774 5.20222 28.5294 5.85416 28.5294 6.65916V15.7648H5.2923V6.65916C5.2923 5.85421 5.94668 5.20222 6.74862 5.20222ZM5.29168 19.3493V17.9964H28.5288V19.3493C28.5288 20.1542 27.8768 20.8062 27.0718 20.8062H6.74799C5.9461 20.8062 5.29168 20.1512 5.29168 19.3493ZM14.0267 23.0406H19.7932L22.1133 26.1687L11.7069 26.1656L14.0267 23.0406ZM5.97102 60.1215H3.45816L13.7635 33.2847H16.2763L5.97102 60.1215ZM3.72441 31.0532V28.3965H47.5181L46.3091 31.0532H3.72441ZM48.6809 58.5513L29.628 49.8773L30.9073 47.0676L40.4354 51.4047L49.9634 55.7449L48.6809 58.5513ZM51.2703 51.2391C51.4845 51.8145 51.4662 52.4389 51.2091 52.9991L50.8846 53.7153L41.3566 49.3781L31.8286 45.038L32.153 44.3217C32.4101 43.7647 32.8662 43.3362 33.4385 43.122C34.0139 42.9077 34.6383 42.9322 35.1985 43.1832L50.068 49.9536C50.6312 50.2076 51.056 50.6637 51.2703 51.2391ZM42.786 44.1841L56.0938 14.9536C56.2897 14.525 56.7978 14.3292 57.2233 14.5312C57.6518 14.7271 57.8415 15.2352 57.6456 15.6636L52.5678 26.8168C52.5556 26.8413 52.5464 26.8596 52.5372 26.8841L44.3373 44.8933L42.786 44.1841ZM64.0273 60.1216L53.722 33.288H56.2318L66.5371 60.1247H64.0273V60.1216Z" fill="#79B3E1"/>
<path d="M37.699 19.5205H47.1565C47.533 19.5205 47.8819 19.3308 48.087 19.0186C48.2951 18.7064 48.3287 18.3085 48.1788 17.9656C47.5605 16.5302 47.5605 14.8865 48.1788 13.448C48.3288 13.1052 48.2951 12.7073 48.087 12.395C47.8788 12.0828 47.5299 11.8931 47.1565 11.8931H37.699C35.5932 11.8931 33.8853 13.6071 33.8853 15.7068C33.8822 17.8095 35.5932 19.5205 37.699 19.5205ZM37.699 14.1214H45.645C45.4338 15.1651 45.4338 16.2455 45.645 17.2893H37.699C36.8266 17.2893 36.1166 16.5792 36.1166 15.7038C36.1166 14.8315 36.8236 14.1214 37.699 14.1214Z" fill="#79B3E1"/>
<path d="M23.1021 56.0021L21.7921 53.2413C21.6176 52.874 21.2534 52.6292 20.8494 52.6047C20.4392 52.5679 20.0536 52.7822 19.8393 53.1281L18.2202 55.7236L15.4594 57.0336C15.0921 57.2081 14.8472 57.5723 14.8227 57.9763C14.7983 58.3834 15.0003 58.7721 15.3461 58.9864L17.9386 60.6025L19.2486 63.3632C19.4231 63.7305 19.7873 63.9754 20.1913 63.9999H20.2525C20.6351 63.9999 20.9963 63.804 21.2013 63.4734L22.8174 60.881L25.5782 59.5709C25.9455 59.3965 26.1904 59.0322 26.2148 58.6282C26.2393 58.2212 26.0373 57.8325 25.6884 57.6182L23.1021 56.0021ZM21.5717 59.0047C21.3789 59.0965 21.2167 59.2434 21.1034 59.4209L20.3933 60.5595L19.8179 59.3474C19.7261 59.1577 19.5792 58.9924 19.4016 58.8791L18.2631 58.169L19.4751 57.5936C19.668 57.5018 19.8302 57.3549 19.9434 57.1773L20.6535 56.0388L21.229 57.2508C21.3208 57.4437 21.4677 57.6059 21.6452 57.7191L22.7838 58.4292L21.5717 59.0047Z" fill="#79B3E1"/>
<path d="M43.2114 6.84902L44.2459 9.02825C44.4204 9.39554 44.7846 9.6404 45.1886 9.66488H45.2498C45.6324 9.66488 45.9936 9.469 46.1986 9.13843L47.4749 7.08771L49.6542 6.05318C50.0215 5.87872 50.2663 5.51449 50.2908 5.11049C50.3153 4.70341 50.1133 4.31471 49.7674 4.10041L47.7167 2.82102L46.6822 0.638663C46.5077 0.271371 46.1435 0.0265104 45.7395 0.00202427C45.3355 -0.0224618 44.9437 0.17649 44.7294 0.528479L43.45 2.5792L41.2708 3.61373C40.9035 3.78819 40.6586 4.15242 40.6341 4.55642C40.6097 4.9635 40.8117 5.3522 41.1606 5.5665L43.2114 6.84902ZM44.7081 4.4555C44.9009 4.36367 45.0632 4.21676 45.1764 4.03924L45.5468 3.44545L45.8467 4.07902C45.9385 4.26879 46.0855 4.43407 46.263 4.54732L46.8568 4.91768L46.2262 5.21763C46.0334 5.30946 45.8712 5.45637 45.758 5.63389L45.3876 6.22768L45.0876 5.59411C44.9958 5.40128 44.8489 5.23906 44.6714 5.12581L44.0776 4.75545L44.7081 4.4555Z" fill="#79B3E1"/>
</svg>
