<svg width="64" height="64" viewBox="0 0 64 64" fill="none" xmlns="http://www.w3.org/2000/svg">
<path d="M30.0702 41.9274L24.3933 38.9088L38.8546 11.7115C39.314 10.848 39.4046 9.86569 39.1265 9.00318C38.4435 5.96889 33.7397 5.51314 32.4692 8.31568L18.0076 35.5132L12.3315 32.495C11.8773 32.2534 11.3169 32.3711 10.9961 32.7711L6.14396 38.8545C5.75084 39.3286 5.87676 40.0912 6.41017 40.4043L0.272037 47.2118C-0.189879 47.7012 -0.0393679 48.5671 0.563731 48.8681L23.0753 60.838C23.2316 60.9213 23.4035 60.963 23.5764 60.963C24.053 60.9691 24.5035 60.6207 24.6118 60.1536L26.8213 51.2668C27.3763 51.533 28.0863 51.1991 28.2566 50.6129L30.5869 43.1889C30.741 42.6982 30.5233 42.168 30.0702 41.9274ZM34.3692 9.28443C34.9819 8.17634 36.7126 8.33595 37.0775 9.5959C37.1952 9.96361 37.1577 10.3594 36.9713 10.7094L22.5098 37.9072L19.8915 36.5149L34.3692 9.28443ZM22.8712 58.3129L2.77206 47.6264L8.33863 41.4515C12.4607 43.6432 20.7555 48.0538 24.8764 50.2452L22.8712 58.3129ZM26.6056 48.7481L8.61286 39.1813L12.1117 34.794C16.8985 37.34 23.4991 40.8501 28.2858 43.3951L26.6056 48.7481Z" fill="#79B3E1"/>
<path d="M62.9318 25.0658H59.7318V24.5325C59.7318 23.9429 59.2547 23.4658 58.6651 23.4658H40.5316C40.1045 23.4658 39.7191 23.72 39.5514 24.1127L36.3514 31.5794C36.2097 31.9086 36.2441 32.2867 36.441 32.5867C36.6389 32.8857 36.9732 33.0659 37.3316 33.0659H43.7316V36.2659C42.6101 36.159 41.5913 37.0082 41.5983 38.1545L41.5983 42.666H39.7108C38.4222 42.666 37.3389 43.6306 37.1889 44.916L35.3857 61.1849C35.1951 62.6407 36.437 64.0326 37.9077 63.9994L58.089 63.9995C59.5592 64.0307 60.8033 62.6421 60.6109 61.1827L58.8067 44.9108C58.6578 43.6306 57.5744 42.666 56.2859 42.666H54.3984V38.1545C54.4054 37.0083 53.3865 36.1588 52.265 36.2659V33.0659H58.6651C59.2547 33.0659 59.7318 32.5888 59.7318 31.9992V31.4659H62.9318C63.5214 31.4659 63.9985 30.9888 63.9985 30.3992V26.1325C63.9985 25.5429 63.5214 25.0658 62.9318 25.0658ZM56.6869 45.1514L58.4901 61.4161C58.5078 61.5744 58.4349 61.6828 58.3901 61.7328C58.3453 61.7828 58.2463 61.8661 58.089 61.8661H37.9076C37.6165 61.8368 37.5126 61.6994 37.5065 61.4182L39.3087 45.1566C39.3326 44.9566 39.5087 44.7993 39.7108 44.7993H42.665H53.3317H56.2859C56.488 44.7993 56.664 44.9566 56.6869 45.1514ZM43.7316 42.666V38.3993C45.2364 38.3993 50.7598 38.3993 52.265 38.3993V42.666H43.7316ZM50.1317 36.2659H45.865V33.0659H50.1317V36.2659ZM57.5984 30.9325C52.0622 30.9325 44.4798 30.9325 38.9493 30.9325L41.2347 25.5992H57.5984C57.5984 26.3499 57.5984 30.1814 57.5984 30.9325ZM61.8651 29.3325H59.7318V27.1992H61.8651V29.3325Z" fill="#79B3E1"/>
<path d="M42.6651 49.0659C42.0755 49.0659 41.5984 49.543 41.5984 50.1326V57.5993C41.5984 58.1889 42.0755 58.666 42.6651 58.666H53.3318C53.9214 58.666 54.3985 58.1889 54.3985 57.5993V50.1326C54.3985 49.543 53.9214 49.0659 53.3318 49.0659H42.6651ZM52.2651 56.5326H43.7317V51.1993H52.2651V56.5326Z" fill="#79B3E1"/>
<path d="M9.846 12.7991L13.6554 12.798C14.7803 12.8482 15.1375 14.2056 14.4617 14.8397C14.2356 15.0658 13.9356 15.1908 13.6169 15.1908H8.33765C7.74807 15.1908 7.27098 15.6678 7.27098 16.2574C7.27098 16.847 7.74807 17.3241 8.33765 17.3241H10.6648V18.52C10.6648 19.1095 11.1418 19.5866 11.7314 19.5866C12.321 19.5866 12.7981 19.1095 12.7981 18.52V17.3241C13.9174 17.3968 15.1637 17.2188 15.9429 16.3751C18.0873 14.4991 16.4698 10.482 13.6169 10.6657H9.87204C8.26806 10.6588 8.26483 8.29575 9.846 8.27404H15.1252C16.5271 8.25096 16.5275 6.16373 15.1252 6.14069L12.7981 6.14069V4.94485C12.7981 4.35526 12.321 3.87817 11.7314 3.87817C11.1418 3.87817 10.6648 4.35526 10.6648 4.94485V6.14069H9.81892C5.45488 6.28779 5.45664 12.6733 9.846 12.7991Z" fill="#79B3E1"/>
<path d="M11.7314 23.4658C27.3093 22.8149 27.2972 0.620435 11.6898 0C-3.87632 0.744837 -3.87538 22.7411 11.7314 23.4658ZM11.7314 2.13231C24.4645 2.66287 24.4556 20.7827 11.7731 21.3335C-1.03182 20.7366 -1.03622 2.75114 11.7314 2.13231Z" fill="#79B3E1"/>
</svg>
