<svg width="78" height="66" viewBox="0 0 78 66" fill="none" xmlns="http://www.w3.org/2000/svg">
<path fill-rule="evenodd" clip-rule="evenodd" d="M39.4802 20.3562C43.3886 16.2069 37.5304 10.3452 33.3785 14.2545C29.4698 18.4051 35.3279 24.2653 39.4802 20.3562ZM36.4293 14.4333C40.219 14.5246 40.2162 20.0821 36.4294 20.1774C32.6401 20.0847 32.6429 14.5285 36.4293 14.4333ZM16.0818 59.7931C13.8059 60.0346 15.159 63.2876 16.9337 61.8492V61.8462C17.6884 61.1424 17.1295 59.7567 16.0818 59.7931ZM16.2413 61.1568L16.0821 60.9976L15.9229 60.8379C15.9583 60.832 16.051 60.7943 16.0818 60.7733C16.1129 60.7943 16.2063 60.8322 16.2413 60.8382C16.2473 60.8731 16.2852 60.9666 16.3061 60.9976C16.2852 61.0284 16.2473 61.122 16.2413 61.1568ZM18.6637 51.4095C17.6163 51.446 17.0569 50.0597 17.812 49.3564V49.3533C18.0296 49.1356 18.3317 49.0006 18.6637 49.0006C18.7726 49.0006 18.8709 49.0357 18.9715 49.0633C19.0072 49.0709 19.0438 49.0724 19.0781 49.0849C19.2411 49.146 19.391 49.2326 19.5124 49.3533H19.5152C20.2693 50.0566 19.7129 51.4461 18.6637 51.4095ZM13.2369 57.7825C13.2303 57.7979 13.2203 57.8095 13.2127 57.8241C13.1761 57.8784 13.1434 57.9325 13.0972 57.9802C13.0596 58.0177 13.0169 58.0453 12.9721 58.0726C12.7844 58.2181 12.5561 58.3272 12.2507 58.3328C10.6701 58.3019 10.6666 55.9516 12.2508 55.924C12.5593 55.9295 12.7892 56.0397 12.9775 56.187C13.0196 56.2133 13.0601 56.2391 13.0958 56.2744C13.1449 56.3248 13.1797 56.3818 13.218 56.4396C13.2236 56.4509 13.2313 56.4596 13.2365 56.4713C13.4807 56.8679 13.4808 57.3852 13.2369 57.7825ZM75.6055 51.4878C77.8378 49.3746 76.2024 45.3721 73.1019 45.4373H66.5002V42.4454C66.5002 42.0471 66.1772 41.7241 65.779 41.7241H65.091V26.6175C67.0003 25.9974 67.6501 23.1481 65.8703 21.8876C65.6485 21.751 65.3774 21.4892 65.091 21.2716V16.3175C65.091 15.5561 64.7802 14.8643 64.2795 14.3636C62.6604 12.6277 59.4832 13.9151 59.561 16.3175V17.0344L41.2202 2.92584C38.3738 0.736847 34.4846 0.737075 31.6382 2.92584C31.6382 2.92584 6.98809 21.8876 6.98824 21.8876C5.53297 22.9263 5.62226 25.261 7.05874 26.2497C7.63655 26.6362 8.63129 27.0086 9.28234 26.567L11.855 24.588V28.936C11.855 28.936 11.855 46.9337 11.855 49.1283L1.51169 64.1093C1.12761 64.5531 1.48355 65.301 2.07284 65.2839C2.07284 65.2839 6.77589 65.2839 12.5762 65.2839C12.5762 65.2839 16.6159 65.2839 22.3403 65.2839C25.8255 65.2839 29.9331 65.2839 34.1398 65.2839C35.9326 65.2839 37.7421 65.2839 39.5285 65.2839C42.0344 65.2839 44.4916 65.2839 46.7915 65.2839C49.4949 65.2839 51.9757 65.2839 54.0543 65.2839C57.8344 65.2839 60.2821 65.2839 60.2821 65.2839C60.2831 65.2839 60.2838 65.2833 60.285 65.2833L75.9274 65.2825C76.373 65.2872 76.7226 64.8647 76.6344 64.4274L74.2908 52.3094C74.7879 52.1302 75.2398 51.8554 75.6055 51.4878ZM47.5127 63.8413V60.5168C47.5127 60.1185 47.1897 59.7956 46.7915 59.7956H45.7244V57.1922H46.7915C47.1897 57.1922 47.5127 56.8692 47.5127 56.471V52.4252C47.5127 52.027 47.1897 51.704 46.7915 51.704H40.2497V42.061H53.3331V45.4373H51.1271C48.0273 45.3738 46.3932 49.3767 48.6218 51.4894H48.6248C48.9914 51.8558 49.4428 52.13 49.9389 52.3091L47.7083 63.8413H47.5127ZM21.2736 59.7956V57.1922H22.3403H44.282V59.7956H22.3403H21.2736ZM23.0616 53.1465H26.0523H33.3002H46.07V55.7497H45.0032H23.0616V53.1465ZM26.7736 42.061H32.579V51.704H26.7736V42.061ZM32.579 40.6184H26.0523H19.5257V37.2449H32.579V40.6184ZM19.5257 42.061H25.3312V50.5385C23.9561 48.547 21.6773 45.2466 21.6773 45.2467C21.1573 44.4362 20.3844 43.8954 19.5257 43.6139V42.061ZM53.3331 40.6184H40.2497V37.2449H53.3331V40.6184ZM74.5902 50.4694H74.5873C74.2059 50.8507 73.6798 51.0878 73.1019 51.0878H51.1271C50.5484 51.0878 50.0218 50.8513 49.642 50.4694C48.3185 49.2418 49.3001 46.8185 51.1271 46.8799H58.8728H65.779H73.1019C74.9275 46.8194 75.9095 49.2431 74.5902 50.4694ZM59.5941 45.4373V43.1666H60.2822H64.3697H65.0577V45.4373H59.5941ZM65.4211 24.4481C65.3526 24.6507 65.2336 24.8157 65.091 24.9534V23.1299C65.4489 23.4729 65.5846 23.9655 65.4211 24.4481ZM61.0034 16.3175C61.0034 15.9544 61.1525 15.6234 61.3924 15.3836V15.3805C62.1644 14.5516 63.6868 15.1694 63.6484 16.3175V41.7241H61.0034V28.936V23.1258V16.3175ZM8.56132 25.3073C7.4156 25.2855 6.93599 23.6831 7.867 23.026L32.5172 4.06426C34.8351 2.28103 38.0234 2.28057 40.3413 4.06426C40.3413 4.06426 57.201 17.0334 59.561 18.8488V21.6637L38.9826 5.83448C38.4732 5.44263 37.9033 5.1937 37.3162 5.06318C37.0231 4.998 36.7271 4.95321 36.4293 4.95321C36.0953 4.95321 35.7634 5.00797 35.4361 5.08988C34.8867 5.22739 34.3545 5.46636 33.8758 5.83448L12.1368 22.5566C12.1365 22.5568 12.1365 22.5572 12.1361 22.5574L8.56132 25.3073ZM34.7545 6.97282C35.0202 6.76861 35.3113 6.62235 35.6133 6.52652C36.1944 6.34208 36.8161 6.36125 37.3894 6.5793C37.6393 6.67437 37.8811 6.80154 38.1038 6.97282L59.561 23.4781V28.2147H13.2975V23.4784L34.7545 6.97282ZM13.2975 29.6572H59.561V41.7241H58.8728C58.4747 41.7241 58.1516 42.0471 58.1516 42.4454V45.4373H54.7756V41.3398V36.5235C54.7756 36.1254 54.4525 35.8023 54.0543 35.8023H39.5285C39.1302 35.8023 38.8073 36.1254 38.8073 36.5235C38.8073 36.5235 38.8073 38.6472 38.8073 41.3398C38.8073 45.0742 38.8073 49.9026 38.8073 51.704H34.0216V41.3398V36.5235C34.0216 36.1254 33.6985 35.8023 33.3002 35.8023H18.8043C18.4062 35.8023 18.0831 36.1254 18.0831 36.5235V41.3398V43.3855C16.7038 43.3925 15.3277 44.0122 14.5351 45.2465L13.2975 47.0391V29.6572ZM3.44475 63.8413L13.2367 49.6587C13.2371 49.6575 13.2383 49.6568 13.2387 49.6556L15.7187 46.0637C16.2865 45.244 17.1073 44.8138 18.1064 44.8128C19.1054 44.8138 19.9259 45.2441 20.4937 46.0637L24.3881 51.704H22.3403C22.2403 51.704 22.1452 51.7246 22.0586 51.7613C21.9685 51.7975 21.8931 51.8496 21.8318 51.9142C21.8313 51.9147 21.8306 51.915 21.8301 51.9155C21.797 51.9507 21.7752 51.9922 21.7506 52.0334C21.6743 52.1477 21.6188 52.2773 21.6188 52.4252V55.7497H20.5523C20.1541 55.7497 19.831 56.0727 19.831 56.471V60.5168C19.831 60.915 20.1541 61.2381 20.5523 61.2381H21.6188V63.8413H12.5762H3.44475ZM39.5285 63.8413H34.1399H23.0616V61.2381H45.0032H46.07V63.8413H39.5285ZM71.0459 63.8413V57.6203C71.042 56.6755 69.6072 56.6791 69.6035 57.6203V63.8413H66.9411V57.6203C66.9369 56.6755 65.5025 56.6791 65.4984 57.6203V63.8413H62.8361V57.6203C62.8319 56.6755 61.3974 56.6791 61.3936 57.6203V63.8413H60.2822H58.7311V57.6203C58.727 56.6755 57.2924 56.6791 57.2886 57.6203V63.8413H54.626V57.6203C54.6218 56.6753 53.187 56.6792 53.1833 57.6203V63.8413H49.175L51.3625 52.5304H72.8669L75.0545 63.8413H71.0459Z" fill="#79B3E1"/>
<path d="M16.0821 60.9976L16.2413 61.1568C16.2473 61.122 16.2852 61.0284 16.3061 60.9976M16.0821 60.9976H16.3061M16.0821 60.9976L16.2413 60.8382M16.0821 60.9976L15.9229 60.8379C15.9583 60.832 16.051 60.7943 16.0818 60.7733C16.1129 60.7943 16.2063 60.8322 16.2413 60.8382M16.3061 60.9976C16.2852 60.9666 16.2473 60.8731 16.2413 60.8382M39.4802 20.3562C43.3886 16.2069 37.5304 10.3452 33.3785 14.2545C29.4698 18.4051 35.3279 24.2653 39.4802 20.3562ZM36.4293 14.4333C40.219 14.5246 40.2162 20.0821 36.4294 20.1774C32.6401 20.0847 32.6429 14.5285 36.4293 14.4333ZM16.0818 59.7931C13.8059 60.0346 15.159 63.2876 16.9337 61.8492V61.8462C17.6884 61.1424 17.1295 59.7567 16.0818 59.7931ZM18.6637 51.4095C17.6163 51.446 17.0569 50.0597 17.812 49.3564V49.3533C18.0296 49.1356 18.3317 49.0006 18.6637 49.0006C18.7726 49.0006 18.8709 49.0357 18.9715 49.0633C19.0072 49.0709 19.0438 49.0724 19.0781 49.0849C19.2411 49.146 19.391 49.2326 19.5124 49.3533H19.5152C20.2693 50.0566 19.7129 51.4461 18.6637 51.4095ZM13.2369 57.7825C13.2303 57.7979 13.2203 57.8095 13.2127 57.8241C13.1761 57.8784 13.1434 57.9325 13.0972 57.9802C13.0596 58.0177 13.0169 58.0453 12.9721 58.0726C12.7844 58.2181 12.5561 58.3272 12.2507 58.3328C10.6701 58.3019 10.6666 55.9516 12.2508 55.924C12.5593 55.9295 12.7892 56.0397 12.9775 56.187C13.0196 56.2133 13.0601 56.2391 13.0958 56.2744C13.1449 56.3248 13.1797 56.3818 13.218 56.4396C13.2236 56.4509 13.2313 56.4596 13.2365 56.4713C13.4807 56.8679 13.4808 57.3852 13.2369 57.7825ZM75.6055 51.4878C77.8378 49.3746 76.2024 45.3721 73.1019 45.4373H66.5002V42.4454C66.5002 42.0471 66.1772 41.7241 65.779 41.7241H65.091V26.6175C67.0003 25.9974 67.6501 23.1481 65.8703 21.8876C65.6485 21.751 65.3774 21.4892 65.091 21.2716V16.3175C65.091 15.5561 64.7802 14.8643 64.2795 14.3636C62.6604 12.6277 59.4832 13.9151 59.561 16.3175V17.0344L41.2202 2.92584C38.3738 0.736847 34.4846 0.737075 31.6382 2.92584C31.6382 2.92584 6.98809 21.8876 6.98824 21.8876C5.53297 22.9263 5.62226 25.261 7.05874 26.2497C7.63655 26.6362 8.63129 27.0086 9.28234 26.567L11.855 24.588V28.936C11.855 28.936 11.855 46.9337 11.855 49.1283L1.51169 64.1093C1.12761 64.5531 1.48355 65.301 2.07284 65.2839C2.07284 65.2839 6.77589 65.2839 12.5762 65.2839C12.5762 65.2839 16.6159 65.2839 22.3403 65.2839C25.8255 65.2839 29.9331 65.2839 34.1398 65.2839C35.9326 65.2839 37.7421 65.2839 39.5285 65.2839C42.0344 65.2839 44.4916 65.2839 46.7915 65.2839C49.4949 65.2839 51.9757 65.2839 54.0543 65.2839C57.8344 65.2839 60.2821 65.2839 60.2821 65.2839C60.2831 65.2839 60.2838 65.2833 60.285 65.2833L75.9274 65.2825C76.373 65.2872 76.7226 64.8647 76.6344 64.4274L74.2908 52.3094C74.7879 52.1302 75.2398 51.8554 75.6055 51.4878ZM47.5127 63.8413V60.5168C47.5127 60.1185 47.1897 59.7956 46.7915 59.7956H45.7244V57.1922H46.7915C47.1897 57.1922 47.5127 56.8692 47.5127 56.471V52.4252C47.5127 52.027 47.1897 51.704 46.7915 51.704H40.2497V42.061H53.3331V45.4373H51.1271C48.0273 45.3738 46.3932 49.3767 48.6218 51.4894H48.6248C48.9914 51.8558 49.4428 52.13 49.9389 52.3091L47.7083 63.8413H47.5127ZM21.2736 59.7956V57.1922H22.3403H44.282V59.7956H22.3403H21.2736ZM23.0615 53.1465H26.0523H33.3002H46.07V55.7497H45.0032H23.0615V53.1465ZM26.7736 42.061H32.579V51.704H26.7736V42.061ZM32.579 40.6184H26.0523H19.5257V37.2449H32.579V40.6184ZM19.5257 42.061H25.3312V50.5385C23.9561 48.547 21.6773 45.2466 21.6773 45.2467C21.1573 44.4362 20.3844 43.8954 19.5257 43.6139V42.061ZM53.3331 40.6184H40.2497V37.2449H53.3331V40.6184ZM74.5903 50.4694H74.5873C74.2059 50.8507 73.6798 51.0878 73.1019 51.0878H51.1271C50.5484 51.0878 50.0218 50.8513 49.642 50.4694C48.3185 49.2418 49.3001 46.8185 51.1271 46.8799H58.8728H65.779H73.1019C74.9275 46.8194 75.9095 49.2431 74.5903 50.4694ZM59.5941 45.4373V43.1666H60.2822H64.3697H65.0577V45.4373H59.5941ZM65.4211 24.4481C65.3526 24.6507 65.2336 24.8157 65.091 24.9534V23.1299C65.4489 23.4729 65.5846 23.9655 65.4211 24.4481ZM61.0034 16.3175C61.0034 15.9544 61.1525 15.6234 61.3924 15.3836V15.3805C62.1644 14.5516 63.6868 15.1694 63.6484 16.3175V41.7241H61.0034V28.936V23.1258V16.3175ZM8.56132 25.3073C7.4156 25.2855 6.93599 23.6831 7.867 23.026L32.5172 4.06426C34.8351 2.28103 38.0234 2.28057 40.3413 4.06426C40.3413 4.06426 57.201 17.0334 59.561 18.8488V21.6637L38.9826 5.83448C38.4732 5.44263 37.9033 5.1937 37.3162 5.06319C37.0231 4.998 36.7271 4.95321 36.4293 4.95321C36.0953 4.95321 35.7634 5.00797 35.4361 5.08988C34.8867 5.22739 34.3545 5.46636 33.8758 5.83448L12.1368 22.5566C12.1365 22.5568 12.1365 22.5572 12.1361 22.5574L8.56132 25.3073ZM34.7545 6.97282C35.0202 6.76861 35.3113 6.62235 35.6133 6.52652C36.1944 6.34208 36.8161 6.36125 37.3894 6.5793C37.6393 6.67437 37.8811 6.80154 38.1038 6.97282L59.561 23.4781V28.2147H13.2975V23.4784L34.7545 6.97282ZM13.2975 29.6572H59.561V41.7241H58.8728C58.4747 41.7241 58.1516 42.0471 58.1516 42.4454V45.4373H54.7756V41.3398V36.5235C54.7756 36.1254 54.4525 35.8023 54.0543 35.8023H39.5285C39.1302 35.8023 38.8073 36.1254 38.8073 36.5235C38.8073 36.5235 38.8073 38.6472 38.8073 41.3398C38.8073 45.0742 38.8073 49.9026 38.8073 51.704H34.0216V41.3398V36.5235C34.0216 36.1254 33.6985 35.8023 33.3002 35.8023H18.8043C18.4062 35.8023 18.0831 36.1254 18.0831 36.5235V41.3398V43.3855C16.7038 43.3925 15.3277 44.0122 14.5351 45.2465L13.2975 47.0391V29.6572ZM3.44475 63.8413L13.2367 49.6587C13.2371 49.6575 13.2383 49.6568 13.2387 49.6556L15.7187 46.0637C16.2865 45.244 17.1073 44.8138 18.1064 44.8128C19.1054 44.8138 19.9259 45.2441 20.4937 46.0637L24.3881 51.704H22.3403C22.2403 51.704 22.1452 51.7246 22.0586 51.7613C21.9685 51.7975 21.8931 51.8496 21.8318 51.9142C21.8313 51.9147 21.8306 51.915 21.8301 51.9155C21.797 51.9507 21.7752 51.9922 21.7506 52.0334C21.6743 52.1477 21.6188 52.2773 21.6188 52.4252V55.7497H20.5523C20.1541 55.7497 19.831 56.0727 19.831 56.471V60.5168C19.831 60.915 20.1541 61.2381 20.5523 61.2381H21.6188V63.8413H12.5762H3.44475ZM39.5285 63.8413H34.1399H23.0615V61.2381H45.0032H46.07V63.8413H39.5285ZM71.0459 63.8413V57.6203C71.042 56.6755 69.6072 56.6791 69.6035 57.6203V63.8413H66.9411V57.6203C66.9369 56.6755 65.5025 56.6791 65.4984 57.6203V63.8413H62.8361V57.6203C62.8319 56.6755 61.3974 56.6791 61.3936 57.6203V63.8413H60.2822H58.7311V57.6203C58.727 56.6755 57.2924 56.6791 57.2886 57.6203V63.8413H54.626V57.6203C54.6218 56.6753 53.187 56.6792 53.1833 57.6203V63.8413H49.175L51.3625 52.5304H72.8669L75.0545 63.8413H71.0459Z" stroke="#79B3E1"/>
</svg>
