<svg width="68" height="70" viewBox="0 0 68 70" fill="none" xmlns="http://www.w3.org/2000/svg">
<path d="M60.8412 69.2089C60.8404 69.2106 60.8406 69.2102 60.8417 69.2079L60.8412 69.2089Z" fill="#27479B" stroke="#F2F7FC" stroke-width="2"/>
<mask id="path-2-inside-1_748_5810" fill="white">
<path d="M46.8319 69.2087C46.8125 69.2261 46.7928 69.2426 46.7731 69.2597C46.8505 69.3342 46.8224 69.2719 46.8319 69.2087Z"/>
</mask>
<path d="M46.8319 69.2087C46.8125 69.2261 46.7928 69.2426 46.7731 69.2597C46.8505 69.3342 46.8224 69.2719 46.8319 69.2087Z" fill="#27479B"/>
<path d="M46.8319 69.2087L48.8094 69.5081L49.6421 64.0075L45.4977 67.7188L46.8319 69.2087ZM46.7731 69.2597L45.4624 67.7491L43.8096 69.1832L45.3861 70.7007L46.7731 69.2597ZM45.4977 67.7188C45.5032 67.7139 45.5055 67.712 45.4988 67.7178C45.4973 67.7191 45.4956 67.7206 45.4932 67.7225C45.4912 67.7243 45.4881 67.7269 45.4853 67.7293C45.4795 67.7344 45.4714 67.7413 45.4624 67.7491L48.0838 70.7704C48.0894 70.7655 48.0884 70.7664 48.1065 70.7509C48.1194 70.7398 48.1413 70.7209 48.1662 70.6986L45.4977 67.7188ZM45.3861 70.7007C45.419 70.7323 45.4768 70.7865 45.5514 70.8459C45.6066 70.8899 45.7732 71.0207 46.017 71.1266C46.2229 71.216 46.916 71.474 47.702 71.0896C48.4831 70.7075 48.7045 70.0074 48.7583 69.8092C48.8227 69.5716 48.8272 69.3746 48.8284 69.3386C48.8296 69.3042 48.8296 69.2764 48.8296 69.2635C48.8296 69.2563 48.8296 69.2503 48.8296 69.2471C48.8296 69.2455 48.8296 69.2439 48.8296 69.2432C48.8296 69.2422 48.8296 69.242 48.8296 69.2418C48.8295 69.2257 48.833 69.352 48.8094 69.5081L44.8545 68.9094C44.8261 69.0971 44.8296 69.2548 44.8296 69.2658C44.8298 69.2955 44.8292 69.2503 44.8306 69.2059C44.8315 69.1808 44.8351 68.9931 44.8976 68.7625C44.9495 68.5714 45.168 67.8762 45.9445 67.4964C46.7258 67.1142 47.4127 67.3718 47.6102 67.4575C47.8456 67.5598 48.0017 67.6838 48.0435 67.7171C48.1048 67.7659 48.1466 67.8058 48.1601 67.8188L45.3861 70.7007Z" fill="#F2F7FC" mask="url(#path-2-inside-1_748_5810)"/>
<path d="M19.7508 2.45205C22.7187 3.14322 24.5643 6.10937 23.8732 9.07706C23.1821 12.0448 20.2159 13.8903 17.248 13.1992C14.2801 12.508 12.4344 9.54186 13.1255 6.57416C13.8166 3.60647 16.7828 1.76089 19.7508 2.45205Z" fill="#27479B" stroke="#F2F7FC" stroke-width="2"/>
<path d="M14.0757 37.8942L14.0779 37.6891C14.081 37.4037 14.0729 37.0858 14.0525 36.731C13.9104 35.6545 13.8637 34.5514 13.8802 33.4488C12.4437 31.9472 11.4211 30.4348 10.6987 29.0901C8.61398 25.2418 8.36545 21.8647 8.35913 20.5476L8.35911 20.5428C8.35912 20.4286 8.36104 20.35 8.36265 20.3049L8.36274 20.3024C8.44296 18.2049 10.1547 16.5549 12.256 16.5549C12.303 16.5549 12.3505 16.5557 12.3979 16.5572L12.4051 16.5574L12.4051 16.5574C13.8989 16.6149 15.167 17.509 15.7732 18.7711C15.7159 18.4323 15.6305 18.106 15.5184 17.8005C15.1141 16.6986 14.4251 16.0035 13.6116 15.8005L14.0757 37.8942ZM14.0757 37.8942L14.1544 38.0836C14.968 40.0419 16.7324 45.0771 16.7392 52.0601C16.7399 55.1882 16.3745 58.7072 15.4039 62.4798C15.3896 62.4785 15.3753 62.4773 15.3611 62.476C13.6737 62.3238 11.8748 62.1615 10.0735 62.1063M14.0757 37.8942L10.0735 62.1063M10.0735 62.1063C11.1196 58.4299 11.4941 55.0441 11.4952 52.0596L10.0735 62.1063ZM9.20981 39.8342L9.38679 40.2757C10.0442 41.9157 11.5011 46.223 11.4952 52.059L9.20981 39.8342ZM9.20981 39.8342L8.75562 39.6929M9.20981 39.8342L8.75562 39.6929M8.75562 39.6929C8.05155 39.4739 7.42287 39.113 6.90673 38.5217C6.39234 37.9325 5.94038 37.0577 5.67779 35.7325C4.95169 29.4651 5.36258 25.8126 7.2819 20.1218C8.58403 16.3389 11.6748 15.3181 13.6114 15.8004L8.75562 39.6929Z" fill="#27479B" stroke="#F2F7FC" stroke-width="2"/>
<path d="M9.12665 65.0086L9.12697 65.0077C9.13318 64.9909 9.13937 64.9741 9.14553 64.9573C10.936 64.9723 12.77 65.1243 14.5824 65.2862C14.4147 65.7973 14.2357 66.3117 14.0439 66.8296C13.6526 67.8855 12.652 68.5415 11.585 68.5415C11.2842 68.5415 10.9768 68.489 10.6748 68.3772L10.6746 68.3771C9.31718 67.8746 8.6239 66.3662 9.12665 65.0086Z" fill="#27479B" stroke="#F2F7FC" stroke-width="2"/>
<path d="M41.3842 54.3949L43.3541 56.7374C43.1474 56.7131 42.9382 56.6972 42.7268 56.69L30.3321 41.9507L29.6724 41.1662L29.6723 41.1655L29.4455 40.8957L28.3124 39.5484C28.4376 39.4658 28.5579 39.3759 28.6727 39.2793L31.6067 42.7683L32.0121 43.2503L32.6219 43.0929L37.9016 41.7306L43.0791 51.663L41.5059 52.986L40.7407 53.6296L41.3842 54.3949ZM49.6881 66.6094C49.9263 65.8745 50.0554 65.0908 50.0554 64.2778C50.0554 62.1575 49.1827 60.238 47.7774 58.8594V55.444L48.0859 55.5038L49.4813 55.7742L50.6714 56.0046V54.7924V50.7316V49.7316H49.6714H49.3092C49.2215 49.7316 49.1503 49.6604 49.1503 49.5726V48.2687C49.1503 48.181 49.2215 48.1097 49.3092 48.1097H56.9875C57.0753 48.1097 57.1465 48.181 57.1465 48.2687V49.5726C57.1465 49.6604 57.0753 49.7316 56.9875 49.7316H56.6254H55.6254V50.7316V56.1391V56.964L56.4352 57.1209C59.9722 57.8059 63.2793 58.4455 63.4968 58.4859L63.4971 58.486C63.5289 58.4918 63.5666 58.5035 63.6033 58.5208C63.6266 58.5318 63.6452 58.543 63.6592 58.5529V61.558V62.1375V63.1375H64.6592H66.8435V66.6094H49.6881Z" fill="#27479B" stroke="#F2F7FC" stroke-width="2"/>
<path d="M15.2848 26.6069L15.2848 26.6069C14.1706 24.568 13.7786 22.6685 13.6433 21.5404H13.5354L13.5746 20.5026C13.6021 19.7755 13.0352 19.1638 12.3077 19.136L15.2848 26.6069ZM15.2848 26.6069L15.2869 26.6108C16.9526 29.6265 20.0475 32.9873 26.554 35.0334L26.5572 35.0344C27.2519 35.2503 27.6405 35.9894 27.4245 36.6842C27.249 37.2476 26.729 37.6114 26.1664 37.6114C26.0383 37.6114 25.9063 37.5923 25.7748 37.5515L25.7724 37.5507C18.7189 35.3798 14.8666 31.3984 12.9706 27.8684L12.9689 27.8653C11.0411 24.3065 10.9426 21.2309 10.9388 20.5379C10.9388 20.4641 10.9403 20.4198 10.9409 20.4059L10.821 20.401M15.2848 26.6069L10.821 20.401M10.821 20.401L10.941 20.4033C10.9683 19.6758 11.58 19.1086 12.3074 19.136L10.821 20.401Z" fill="#27479B" stroke="#F2F7FC" stroke-width="2"/>
<path d="M42.4644 59.5547C45.0723 59.5547 47.1869 61.6695 47.1869 64.2772C47.1869 66.8854 45.0724 68.9997 42.4644 68.9997C39.8563 68.9997 37.7419 66.8854 37.7419 64.2772C37.7419 61.6695 39.8564 59.5547 42.4644 59.5547ZM42.4647 60.4522C40.355 60.4522 38.639 62.1666 38.639 64.2772C38.639 66.3871 40.3549 68.1022 42.4647 68.1022C44.5742 68.1022 46.29 66.387 46.29 64.2772C46.29 62.1667 44.5741 60.4522 42.4647 60.4522Z" fill="#27479B" stroke="#F2F7FC" stroke-width="2"/>
<mask id="path-10-inside-2_748_5810" fill="white">
<path d="M0.15654 64.9903L0.600143 65.7381C2.62258 64.5377 5.08861 64.0732 7.7088 63.9773L7.69054 63.483L7.67634 63.1086C4.97735 63.2083 2.36441 63.6832 0.15654 64.9903Z"/>
</mask>
<path d="M0.15654 64.9903L0.600143 65.7381C2.62258 64.5377 5.08861 64.0732 7.7088 63.9773L7.69054 63.483L7.67634 63.1086C4.97735 63.2083 2.36441 63.6832 0.15654 64.9903Z" fill="#27479B"/>
<path d="M0.15654 64.9903L-0.862303 63.2692L-2.58485 64.289L-1.5636 66.0106L0.15654 64.9903ZM0.600143 65.7381L-1.12 66.7585L-0.09936 68.4791L1.62097 67.458L0.600143 65.7381ZM7.7088 63.9773L7.78195 65.976L9.78126 65.9028L9.70743 63.9035L7.7088 63.9773ZM7.69054 63.483L9.68918 63.4092L9.68911 63.4072L7.69054 63.483ZM7.67634 63.1086L9.67491 63.0328L9.59918 61.0363L7.60254 61.11L7.67634 63.1086ZM-1.5636 66.0106L-1.12 66.7585L2.32028 64.7177L1.87668 63.9699L-1.5636 66.0106ZM1.62097 67.458C3.23465 66.5001 5.31922 66.0661 7.78195 65.976L7.63564 61.9786C4.85801 62.0803 2.0105 62.5752 -0.420684 64.0182L1.62097 67.458ZM9.70743 63.9035L9.68918 63.4092L5.6919 63.5568L5.71016 64.0511L9.70743 63.9035ZM9.68911 63.4072L9.67491 63.0328L5.67778 63.1844L5.69198 63.5588L9.68911 63.4072ZM7.60254 61.11C4.74523 61.2155 1.75264 61.7212 -0.862303 63.2692L1.17538 66.7113C2.97618 65.6452 5.20947 65.2011 7.75015 65.1073L7.60254 61.11Z" fill="#F2F7FC" mask="url(#path-10-inside-2_748_5810)"/>
</svg>
